<svg width="48" height="48" viewBox="0 0 48 48" fill="none" xmlns="http://www.w3.org/2000/svg">
<path d="M24.1309 12.4229C24.599 10.5325 26.5109 9.37947 28.4014 9.84757L40.1762 12.7632C42.0667 13.2313 43.2197 15.1433 42.7516 17.0337L38.3103 34.9698C37.8422 36.8602 35.9303 38.0133 34.0399 37.5452L22.265 34.6296C20.3746 34.1615 19.2215 32.2495 19.6896 30.3591L24.1309 12.4229Z" fill="#242424"/>
<path d="M36.3574 21.392C36.3157 21.5765 36.1922 21.7407 36.0225 21.8259C35.803 21.9451 35.5218 21.9109 35.3193 21.7725C35.1193 21.6324 35.0101 21.3732 35.0563 21.1324C35.0855 20.9425 35.193 20.7623 35.3603 20.6634C35.5205 20.5597 35.7256 20.5404 35.9063 20.597C36.094 20.6478 36.2527 20.788 36.328 20.9671C36.3873 21.1001 36.3933 21.2519 36.3574 21.392Z" fill="#9FA9FF"/>
<path d="M35.6384 24.2953C35.5968 24.48 35.4732 24.6444 35.3034 24.7297C35.0839 24.8488 34.8027 24.8147 34.6002 24.6763C34.4001 24.5361 34.2909 24.2767 34.3373 24.0359C34.366 23.8457 34.4767 23.6691 34.6409 23.5673C34.7992 23.4596 35.0056 23.4439 35.1858 23.4999C35.4246 23.5661 35.6024 23.784 35.6486 24.0234C35.6653 24.1134 35.6606 24.2067 35.6384 24.2953Z" fill="#9FA9FF"/>
<path d="M33.7295 22.886C33.4043 24.2953 32.44 25.5047 31.2046 26.2359C29.6612 27.1662 27.8477 27.5519 26.0675 27.6687C25.8185 27.7332 25.5262 27.4945 25.912 27.4186C26.6518 27.2809 27.4068 27.1922 28.1201 26.9365C29.6802 26.435 31.1481 25.4003 31.8225 23.8646C32.2257 22.928 32.4325 21.9003 32.4252 20.8808C32.4202 20.1313 32.1118 19.2826 31.3639 18.9868C30.6884 18.7055 29.8818 18.7639 29.2549 19.1477C29.0901 19.2486 28.7419 19.555 28.6792 19.9896C29.0366 19.8287 29.0097 19.8498 29.2822 19.8012C29.9095 19.6892 30.5701 20.2329 30.557 20.8898C30.5656 21.4986 30.2694 22.1972 29.6298 22.3623C28.9614 22.5367 28.125 22.1889 27.9524 21.477C27.6485 20.3708 28.2767 19.1169 29.3235 18.6608C30.4038 18.139 31.7185 18.4337 32.6793 19.0766C33.665 19.7492 34.0336 21.0345 33.8623 22.1747C33.8332 22.4143 33.7875 22.6518 33.7295 22.886Z" fill="#9FA9FF"/>
<path d="M6.06309 16.7341C5.69733 14.8212 6.95152 12.974 8.86439 12.6083L20.779 10.3301C22.6919 9.96435 24.5391 11.2185 24.9048 13.1314L28.375 31.2804C28.7408 33.1933 27.4866 35.0405 25.5737 35.4062L13.6591 37.6844C11.7462 38.0501 9.89905 36.796 9.5333 34.8831L6.06309 16.7341Z" fill="#81E4BB"/>
<path fill-rule="evenodd" clip-rule="evenodd" d="M17.813 24.7324C17.575 24.8306 17.3715 25.0104 17.1938 25.2687C17.0166 25.5311 16.9473 25.805 16.9813 26.0868C17.0027 26.264 17.0875 26.458 17.2303 26.6572C17.3735 26.8606 17.5701 26.9962 17.8123 27.0691C17.8909 27.0759 17.9321 27.1118 17.9389 27.1682C17.9413 27.1883 17.9155 27.2118 17.8488 27.2362C17.4704 27.1879 17.1438 27.0271 16.8743 26.7615C16.6043 26.4917 16.4424 26.1681 16.3877 25.7826C16.3498 25.3664 16.4283 24.9648 16.6237 24.5818C16.8226 24.1942 17.1028 23.9031 17.4642 23.7084L17.0133 22.3126C16.4539 22.9029 16.014 23.4993 15.6905 24.1102C15.3665 24.7171 15.238 25.3494 15.3011 26.0076C15.3446 26.3006 15.4396 26.5791 15.5856 26.8393C15.7322 27.1035 15.9318 27.3326 16.1855 27.5349C16.6964 27.9348 17.3184 28.1008 18.0438 28.0378C18.288 27.992 18.545 27.9161 18.8188 27.8096L17.813 24.7324ZM18.0987 24.6571L19.1018 27.6774C19.6932 27.3528 19.9385 26.7718 19.8384 25.9423C19.7686 25.6689 19.6577 25.429 19.4938 25.2241C19.3334 25.0147 19.1345 24.859 18.8929 24.7574C18.6513 24.6558 18.3893 24.6221 18.0987 24.6571ZM16.7663 20.5696C16.8897 20.473 17.0261 20.3136 17.1678 20.0963C17.31 19.8831 17.4437 19.6341 17.566 19.358C17.6918 19.0773 17.7849 18.7964 17.8452 18.5155C17.906 18.2385 17.9198 17.9795 17.8916 17.746C17.8795 17.6454 17.8593 17.5457 17.8284 17.4595C17.7948 17.3165 17.7368 17.2091 17.6509 17.1419C17.5654 17.0787 17.4637 17.0501 17.3426 17.0647C17.1005 17.0939 16.9005 17.2692 16.7427 17.5905C16.6244 17.8662 16.5362 18.1873 16.4892 18.5442C16.4386 18.9057 16.4279 19.2583 16.4621 19.6096C16.5304 20.0057 16.6343 20.3241 16.7663 20.5696ZM16.5401 20.8338C16.2799 20.2034 16.0988 19.5513 15.9971 18.8773C15.9486 18.442 15.944 18.0299 15.9831 17.6412C16.0182 17.253 16.0959 16.9128 16.2153 16.6125C16.3306 16.3126 16.4784 16.0783 16.6547 15.91C16.8127 15.7602 16.9295 15.6767 16.9981 15.6684C17.0506 15.662 17.0974 15.6768 17.1422 15.7082C17.1869 15.7396 17.2467 15.7936 17.3209 15.8664C17.8833 16.4889 18.2245 17.281 18.3401 18.2393C18.395 18.6943 18.3879 19.1444 18.3202 19.6019C18.2561 20.0549 18.1331 20.4946 17.9501 20.9129C17.7636 21.3357 17.5304 21.711 17.247 22.0434L17.7653 23.5903C17.9405 23.5488 18.0596 23.5181 18.1282 23.5098C18.435 23.4728 18.7172 23.5041 18.987 23.6023C19.2568 23.7005 19.4956 23.8473 19.6999 24.0473C19.9037 24.2433 20.0711 24.4764 20.2019 24.7466C20.3288 25.0172 20.4167 25.3048 20.4536 25.6108C20.5109 26.0859 20.4382 26.5358 20.2351 26.9566C20.032 27.3773 19.6911 27.7084 19.2089 27.9545C19.265 28.1479 19.356 28.4269 19.4849 28.7831C19.6103 29.1438 19.7063 29.4304 19.7729 29.643C19.8395 29.8555 19.8809 30.0629 19.9057 30.2683C19.944 30.5864 19.9013 30.8774 19.7781 31.1456C19.6508 31.4142 19.4642 31.6328 19.2143 31.8018C18.9685 31.9703 18.6862 32.0738 18.3714 32.1118C17.9274 32.1653 17.5249 32.0873 17.1643 31.8816C16.8032 31.6719 16.5853 31.3591 16.5177 30.9343C16.507 30.7436 16.53 30.5611 16.5903 30.3822C16.6507 30.2034 16.7431 30.0533 16.8718 29.9316C16.9959 29.8064 17.1546 29.73 17.3428 29.6951C17.5002 29.6761 17.6549 29.7024 17.8063 29.7699C17.9543 29.8419 18.0813 29.945 18.1841 30.0838C18.2828 30.223 18.3471 30.3827 18.3684 30.5599C18.3971 30.7974 18.3407 31.0085 18.1991 31.193C18.0576 31.3776 17.8619 31.487 17.6157 31.5167L17.5229 31.5279C17.7095 31.7505 17.9828 31.8441 18.342 31.8008C18.5237 31.7789 18.7045 31.7162 18.8814 31.6214C19.0619 31.522 19.2071 31.4023 19.3248 31.2574C19.4424 31.1125 19.5147 30.9649 19.5335 30.8156C19.5822 30.6422 19.5868 30.4089 19.5524 30.123C19.5291 29.9297 19.4856 29.7389 19.4259 29.55C19.3668 29.3652 19.2797 29.1183 19.1651 28.8135C19.051 28.5127 18.9654 28.278 18.9132 28.1168C18.6783 28.2064 18.432 28.2688 18.1696 28.3004C17.7297 28.3535 17.3033 28.3151 16.8899 28.1811C16.4766 28.0471 16.1034 27.8389 15.7659 27.5528C15.4324 27.2662 15.1586 26.9316 14.9436 26.5409C14.7331 26.1537 14.5969 25.7372 14.5394 25.2948C14.5061 24.8821 14.5351 24.4783 14.6358 24.0904C14.7359 23.6984 14.8788 23.3217 15.0691 22.9638C15.2593 22.6059 15.461 22.2752 15.6747 21.9757C15.8928 21.6798 16.1785 21.2981 16.5401 20.8338Z" fill="#242424"/>
<path fill-rule="evenodd" clip-rule="evenodd" d="M16.8632 15.7405C16.806 15.781 16.7376 15.8391 16.6587 15.9138C16.4832 16.0814 16.3358 16.3149 16.2207 16.6141L16.2207 16.6142C16.1016 16.9139 16.024 17.2535 15.989 17.6413L15.989 17.6413C15.9499 18.0295 15.9545 18.441 16.0029 18.876C16.1046 19.5494 16.2855 20.2011 16.5456 20.8309L16.5469 20.8342L16.5448 20.837C16.1831 21.3013 15.8975 21.6829 15.6794 21.9788C15.4659 22.278 15.2644 22.6084 15.0742 22.9661C14.8842 23.3236 14.7415 23.6998 14.6415 24.0913L14.6415 24.0914C14.541 24.4785 14.512 24.8816 14.5453 25.2936C14.6027 25.7352 14.7387 26.151 14.9488 26.5375C15.1634 26.9275 15.4367 27.2616 15.7697 27.5477C16.1066 27.8332 16.479 28.0411 16.8916 28.1748C17.3041 28.3085 17.7296 28.3468 18.1687 28.2939C18.4305 28.2623 18.6764 28.2 18.9108 28.1106L18.9168 28.1083L18.9188 28.1144C18.9709 28.2754 19.0565 28.5101 19.1706 28.8108C19.2852 29.1157 19.3723 29.3626 19.4315 29.5476L19.4315 29.5477C19.4913 29.7368 19.5349 29.928 19.5582 30.1217C19.5927 30.4077 19.5882 30.6418 19.5393 30.8163C19.5202 30.9669 19.4473 31.1154 19.3293 31.2607C19.2111 31.4063 19.0652 31.5264 18.8841 31.6262L18.8841 31.6262C18.7066 31.7214 18.5251 31.7843 18.3426 31.8063C17.9818 31.8498 17.7062 31.7558 17.5181 31.5313L17.5108 31.5226L17.6148 31.5101C17.8595 31.4806 18.0536 31.372 18.1941 31.1888C18.3346 31.0056 18.3907 30.7961 18.3622 30.5601C18.341 30.384 18.2771 30.2253 18.179 30.0868C18.0769 29.9489 17.9506 29.8465 17.8036 29.7749C17.6531 29.7078 17.4996 29.6818 17.3435 29.7006C17.1564 29.7353 16.9989 29.8112 16.8759 29.9354L16.8758 29.9355C16.7479 30.0565 16.656 30.2056 16.5959 30.3836C16.5359 30.5616 16.5129 30.7432 16.5236 30.9331C16.591 31.356 16.8077 31.667 17.1671 31.8758C17.5265 32.0808 17.9277 32.1586 18.3704 32.1052C18.6843 32.0673 18.9657 31.9642 19.2107 31.7962L19.2107 31.7962C19.4597 31.6278 19.6455 31.4101 19.7724 31.1424C19.8951 30.8754 19.9377 30.5855 19.8994 30.2685C19.8747 30.0635 19.8334 29.8564 19.7669 29.6443C19.7004 29.4318 19.6044 29.1453 19.479 28.7846C19.35 28.4284 19.259 28.1492 19.2029 27.9557L19.2015 27.9508L19.206 27.9485C19.6871 27.703 20.0269 27.3727 20.2294 26.9534C20.432 26.5337 20.5045 26.085 20.4473 25.611C20.4105 25.3057 20.3228 25.0188 20.1962 24.7487C20.0657 24.4791 19.8988 24.2467 19.6955 24.0512L19.6955 24.0512C19.4918 23.8518 19.2537 23.7054 18.9847 23.6075C18.7158 23.5097 18.4346 23.4784 18.1287 23.5153C18.0744 23.5219 17.9881 23.5426 17.8664 23.5718C17.8354 23.5793 17.8021 23.5873 17.7665 23.5957L17.7611 23.597L17.24 22.0416L17.2422 22.0389C17.5252 21.707 17.7581 21.3322 17.9443 20.9099C18.1271 20.4921 18.2499 20.053 18.314 19.6006L18.314 19.6005C18.3816 19.1435 18.3887 18.6939 18.3339 18.2395C18.2184 17.2824 17.8777 16.4915 17.3163 15.8701C17.2421 15.7974 17.1827 15.7437 17.1385 15.7126C17.0947 15.682 17.0494 15.6678 16.9987 15.6739C16.966 15.6778 16.9207 15.7 16.8632 15.7405ZM16.8562 15.7306C16.9139 15.6899 16.9613 15.6661 16.9972 15.6618C17.0514 15.6553 17.0997 15.6706 17.1455 15.7027C17.1906 15.7344 17.2507 15.7887 17.325 15.8615L17.3251 15.8616L17.3253 15.8617C17.8886 16.4853 18.2303 17.2787 18.346 18.238C18.4009 18.6935 18.3938 19.1443 18.326 19.6023C18.2619 20.0558 18.1387 20.496 17.9555 20.9148C17.7693 21.337 17.5365 21.712 17.2537 22.0442L17.7691 23.5826C17.8024 23.5747 17.8337 23.5672 17.863 23.5601C17.9849 23.5309 18.0722 23.5099 18.1273 23.5032C18.4349 23.4661 18.7181 23.4975 18.9889 23.596C19.2594 23.6945 19.499 23.8418 19.704 24.0424C19.9083 24.239 20.0761 24.4726 20.2072 24.7434L20.2073 24.7435C20.3343 25.0146 20.4224 25.3028 20.4594 25.6095C20.5169 26.0858 20.444 26.5369 20.2404 26.9587C20.0372 27.3795 19.6968 27.7108 19.216 27.9571C19.2721 28.1501 19.3626 28.4274 19.4905 28.7805L19.4905 28.7806C19.6159 29.1413 19.7119 29.428 19.7785 29.6406C19.8452 29.8536 19.8867 30.0614 19.9115 30.267C19.95 30.5861 19.9072 30.8784 19.7834 31.1476L19.7834 31.1476C19.6556 31.4172 19.4684 31.6366 19.2176 31.8063C18.9709 31.9754 18.6876 32.0792 18.3719 32.1173C17.9267 32.171 17.5229 32.0927 17.1611 31.8863L17.161 31.8863C16.7984 31.6757 16.5794 31.3613 16.5115 30.9347L16.5114 30.9344L16.5114 30.9341C16.5007 30.7426 16.5238 30.5594 16.5844 30.3797C16.645 30.2001 16.7379 30.0492 16.8673 29.9267C16.9924 29.8005 17.1523 29.7237 17.3415 29.6885L17.3417 29.6885L17.3419 29.6885C17.5005 29.6694 17.6563 29.6959 17.8086 29.7638L17.8088 29.7639C17.9576 29.8363 18.0854 29.9401 18.1888 30.0796L18.1888 30.0797C18.2881 30.2198 18.3528 30.3804 18.3743 30.5586C18.4031 30.7977 18.3463 31.0104 18.2038 31.1962C18.0612 31.3821 17.864 31.4923 17.6163 31.5222L17.5347 31.532C17.7194 31.7465 17.9881 31.8368 18.3411 31.7942C18.5218 31.7724 18.7019 31.71 18.8783 31.6155C19.0581 31.5164 19.2027 31.3973 19.3198 31.2531C19.437 31.1088 19.5086 30.9622 19.5273 30.8143L19.5274 30.8139L19.5275 30.8134C19.5759 30.6412 19.5806 30.4087 19.5461 30.1232C19.5229 29.9303 19.4795 29.7399 19.4199 29.5513C19.3608 29.3666 19.2738 29.1199 19.1592 28.8151C19.0466 28.5181 18.9616 28.2854 18.9092 28.1242C18.6756 28.2128 18.4308 28.2745 18.1702 28.306C17.7294 28.3591 17.3021 28.3206 16.8879 28.1864C16.4737 28.0522 16.0999 27.8435 15.7618 27.5569L15.7617 27.5569C15.4277 27.2699 15.1535 26.9347 14.9381 26.5433L14.9381 26.5433C14.7272 26.1554 14.5908 25.7382 14.5332 25.295L14.5332 25.2949L14.5332 25.2947C14.4997 24.8815 14.5289 24.477 14.6297 24.0883C14.7299 23.6959 14.873 23.3187 15.0635 22.9604C15.2538 22.6023 15.4557 22.2714 15.6695 21.9717L15.6696 21.9716C15.8873 21.6762 16.1723 21.2954 16.533 20.8323C16.2732 20.2025 16.0925 19.551 15.9908 18.8777L15.9908 18.8774C15.9423 18.4417 15.9377 18.0293 15.9768 17.6402C16.0119 17.2515 16.0898 16.9107 16.2094 16.6097C16.325 16.3093 16.4732 16.0741 16.6502 15.905L16.6503 15.905C16.7294 15.83 16.7983 15.7715 16.8562 15.7306ZM16.737 17.5873C16.8953 17.265 17.0966 17.0877 17.3417 17.0581C17.4643 17.0433 17.5676 17.0723 17.6543 17.1365L17.6544 17.1366C17.7417 17.2049 17.8002 17.3137 17.8341 17.4573C17.8651 17.5439 17.8853 17.6439 17.8975 17.7447C17.9257 17.979 17.9119 18.2387 17.851 18.5162C17.7906 18.7976 17.6974 19.0789 17.5714 19.3599C17.449 19.6363 17.3151 19.8856 17.1727 20.0992C17.0308 20.3167 16.894 20.4767 16.7698 20.5739L16.7641 20.5783L16.7607 20.5719C16.6283 20.3257 16.5242 20.0067 16.4559 19.6101L16.4559 19.6098L16.4558 19.6096C16.4216 19.2579 16.4323 18.9048 16.483 18.5429C16.5301 18.1854 16.6184 17.8638 16.7369 17.5875L16.737 17.5874L16.737 17.5873ZM16.748 17.5925C16.63 17.8676 16.542 18.1881 16.495 18.5445L16.495 18.5445C16.4445 18.9055 16.4338 19.2576 16.4679 19.6082C16.5355 20.0004 16.6381 20.3159 16.768 20.5598C16.8892 20.4633 17.0232 20.3061 17.1625 20.0925L17.1625 20.0924C17.3045 19.8795 17.4381 19.6309 17.5602 19.355L17.5603 19.3549C17.6859 19.0746 17.7789 18.7942 17.8391 18.5137L17.8391 18.5136C17.8997 18.2373 17.9134 17.979 17.8854 17.7462C17.8733 17.6458 17.8531 17.5466 17.8225 17.461L17.8224 17.4607L17.8223 17.4604C17.7888 17.3182 17.7314 17.2123 17.647 17.1462C17.5629 17.084 17.4627 17.0558 17.3432 17.0702C17.1039 17.0991 16.9054 17.2722 16.748 17.5925ZM17.0158 22.3004L17.4714 23.7108L17.4669 23.7132C17.1067 23.9073 16.8273 24.1975 16.6289 24.584C16.4341 24.966 16.3558 25.3664 16.3936 25.7814C16.4481 26.1655 16.6094 26.4879 16.8784 26.7566C17.1466 27.021 17.4714 27.1811 17.8479 27.2295C17.8802 27.2175 17.9022 27.206 17.9158 27.1953C17.9297 27.1843 17.9335 27.1753 17.9326 27.1684C17.9294 27.1416 17.9181 27.12 17.8985 27.1043C17.8787 27.0884 17.8501 27.078 17.8115 27.0746L17.8109 27.0745L17.8103 27.0744C17.5669 27.0011 17.3692 26.8647 17.2251 26.6602C17.0819 26.4604 16.9966 26.2655 16.975 26.087C16.9409 25.8036 17.0106 25.5282 17.1886 25.2648L17.1886 25.2647C17.3668 25.0057 17.5711 24.825 17.8104 24.7263L17.8165 24.7238L18.8262 27.8126L18.8208 27.8147C18.5468 27.9214 18.2894 27.9974 18.0447 28.0433L18.0444 28.0434L18.0441 28.0434C17.3174 28.1065 16.6939 27.9402 16.1815 27.5391L16.1815 27.5391C15.9272 27.3364 15.7271 27.1067 15.5801 26.8417C15.4337 26.5809 15.3385 26.3017 15.2948 26.008L15.2948 26.0078L15.2948 26.0077C15.2317 25.3482 15.3604 24.7147 15.6849 24.1068C16.0088 23.4953 16.449 22.8986 17.0087 22.3079L17.0158 22.3004ZM17.0105 22.3237C16.4548 22.9113 16.0175 23.5048 15.6957 24.1125L15.6957 24.1125C15.3723 24.7183 15.2441 25.3494 15.3069 26.0063C15.3503 26.2985 15.4451 26.5763 15.5908 26.8358L15.5908 26.8358C15.7369 27.0992 15.9359 27.3278 16.1891 27.5296C16.6986 27.9284 17.3188 28.0941 18.0427 28.0313C18.2849 27.9858 18.5397 27.9107 18.811 27.8054L17.809 24.7401C17.575 24.8382 17.3743 25.0162 17.1986 25.2716C17.0222 25.5329 16.9533 25.8053 16.9871 26.0855C17.0083 26.2614 17.0926 26.4544 17.235 26.6532L17.235 26.6532C17.3774 26.8551 17.5725 26.9899 17.8132 27.0625C17.853 27.0661 17.884 27.077 17.9061 27.0948C17.9285 27.1127 17.9411 27.1373 17.9447 27.1669C17.9463 27.1802 17.9384 27.1929 17.9233 27.2048C17.9081 27.2169 17.8843 27.2291 17.8507 27.2414L17.8493 27.2419L17.8478 27.2417C17.468 27.1933 17.1403 27.0319 16.8698 26.7653L16.8698 26.7652C16.5988 26.4946 16.4364 26.1698 16.3815 25.7829L16.3815 25.7828L16.3814 25.7826C16.3434 25.3653 16.4222 24.9625 16.6181 24.5785C16.8167 24.1915 17.0963 23.9002 17.4567 23.7049L17.0105 22.3237ZM18.0904 24.6514L18.0978 24.6505C18.3893 24.6154 18.6524 24.6492 18.8951 24.7513C19.1376 24.8533 19.3374 25.0096 19.4984 25.2198C19.663 25.4255 19.7741 25.6662 19.8441 25.9403L19.8442 25.9407L19.8443 25.9411C19.8944 26.3565 19.8581 26.7103 19.7348 27.001C19.6115 27.2919 19.4014 27.5193 19.1045 27.6822L19.0981 27.6857L18.0904 24.6514ZM18.1066 24.6618L19.1051 27.668C19.3963 27.5066 19.6023 27.2823 19.7236 26.9963C19.8458 26.7081 19.8821 26.3568 19.8322 25.9429C19.7625 25.6703 19.6521 25.4314 19.4889 25.2274L19.4888 25.2273C19.329 25.0187 19.1309 24.8636 18.8903 24.7625C18.6519 24.6622 18.3933 24.6283 18.1066 24.6618Z" fill="#242424"/>
</svg>
